<svg width="1920" height="1080" viewBox="0 0 1920 1080" fill="none" xmlns="http://www.w3.org/2000/svg">
  <defs>
    <linearGradient id="sky" x1="960" y1="0" x2="960" y2="700" gradientUnits="userSpaceOnUse">
      <stop offset="0" stop-color="#1D2B64"/>
      <stop offset="0.45" stop-color="#2A4B8D"/>
      <stop offset="0.78" stop-color="#F39C6B"/>
      <stop offset="1" stop-color="#F7C58B"/>
    </linearGradient>
    <linearGradient id="water" x1="960" y1="560" x2="960" y2="1080" gradientUnits="userSpaceOnUse">
      <stop offset="0" stop-color="#2F5A7A"/>
      <stop offset="1" stop-color="#14263A"/>
    </linearGradient>
    <linearGradient id="mountain" x1="960" y1="340" x2="960" y2="760" gradientUnits="userSpaceOnUse">
      <stop offset="0" stop-color="#314765"/>
      <stop offset="1" stop-color="#1D2F45"/>
    </linearGradient>
    <linearGradient id="land" x1="960" y1="770" x2="960" y2="1080" gradientUnits="userSpaceOnUse">
      <stop offset="0" stop-color="#315B3A"/>
      <stop offset="1" stop-color="#203A25"/>
    </linearGradient>
  </defs>

  <rect width="1920" height="1080" fill="url(#sky)"/>
  <circle cx="1360" cy="230" r="80" fill="#FFDCA8" fill-opacity="0.75"/>

  <path d="M0 600L180 500L330 560L520 430L740 590L930 470L1130 610L1330 450L1560 590L1740 520L1920 610V1080H0V600Z" fill="url(#mountain)"/>

  <rect x="0" y="560" width="1920" height="520" fill="url(#water)"/>
  <path d="M0 670C220 640 430 640 640 670C860 700 1090 710 1290 680C1510 646 1700 640 1920 662V712C1690 688 1510 700 1290 730C1070 760 850 756 640 728C430 700 210 702 0 730V670Z" fill="#8FD0EA" fill-opacity="0.18"/>
  <path d="M0 810C200 790 440 798 650 828C890 862 1080 868 1310 840C1540 812 1730 812 1920 830V1080H0V810Z" fill="url(#land)"/>

  <g fill="#132535">
    <rect x="210" y="630" width="16" height="160"/>
    <polygon points="218,560 160,650 276,650"/>
    <rect x="1680" y="650" width="18" height="170"/>
    <polygon points="1689,565 1622,670 1756,670"/>
    <rect x="1540" y="670" width="14" height="130"/>
    <polygon points="1547,615 1498,690 1596,690"/>
  </g>
</svg>
