<svg width="1920" height="1080" viewBox="0 0 1920 1080" fill="none" xmlns="http://www.w3.org/2000/svg">
  <defs>
    <linearGradient id="sky" x1="960" y1="0" x2="960" y2="760" gradientUnits="userSpaceOnUse">
      <stop offset="0" stop-color="#73C5FF"/>
      <stop offset="0.45" stop-color="#8ED6FF"/>
      <stop offset="1" stop-color="#D9F2FF"/>
    </linearGradient>
    <linearGradient id="mountains" x1="960" y1="260" x2="960" y2="740" gradientUnits="userSpaceOnUse">
      <stop offset="0" stop-color="#6F8AA4"/>
      <stop offset="1" stop-color="#4A6278"/>
    </linearGradient>
    <linearGradient id="hillFar" x1="960" y1="620" x2="960" y2="980" gradientUnits="userSpaceOnUse">
      <stop offset="0" stop-color="#7ECF76"/>
      <stop offset="1" stop-color="#5AAE53"/>
    </linearGradient>
    <linearGradient id="hillNear" x1="960" y1="720" x2="960" y2="1080" gradientUnits="userSpaceOnUse">
      <stop offset="0" stop-color="#66C45B"/>
      <stop offset="1" stop-color="#3D8E3A"/>
    </linearGradient>
    <filter id="blurCloud" x="-20%" y="-20%" width="140%" height="140%">
      <feGaussianBlur stdDeviation="12"/>
    </filter>
  </defs>

  <rect width="1920" height="1080" fill="url(#sky)"/>

  <g opacity="0.75" filter="url(#blurCloud)">
    <ellipse cx="360" cy="180" rx="170" ry="56" fill="white"/>
    <ellipse cx="560" cy="160" rx="150" ry="50" fill="white"/>
    <ellipse cx="1420" cy="210" rx="190" ry="60" fill="white"/>
    <ellipse cx="1620" cy="180" rx="140" ry="48" fill="white"/>
  </g>

  <path d="M0 670L220 520L350 610L560 450L760 620L920 500L1140 660L1320 480L1500 620L1710 520L1920 650V1080H0V670Z" fill="url(#mountains)"/>

  <path d="M0 790C200 720 420 700 620 760C820 820 1010 860 1200 800C1420 730 1650 700 1920 760V1080H0V790Z" fill="url(#hillFar)"/>

  <path d="M0 900C220 820 450 810 650 870C860 930 1100 970 1320 900C1520 840 1710 820 1920 860V1080H0V900Z" fill="url(#hillNear)"/>

  <circle cx="250" cy="140" r="58" fill="#FFF9D1" fill-opacity="0.72"/>
</svg>
